# xmcd
#
# Track frame offsets:
#	182
#	10107
#	24180
#	37755
#	53620
#	68845
#	83355
#	100757
#	114312
#	124322
#	136000
#	146690
#
# Disc length: 2085
#
# Revision: 3
# Processed by: cddbd v1.5.1PL0 Copyright (c) Steve Scherf et al.
# Submitted via: DiscPlay 4.0.3
# Normalized: r1:TDELIM( - ),TSWAP
#
DISCID=8508230c
DTITLE=Various Artist - Clasicos De La Musica Country - CD2
DYEAR=1900
DGENRE=
TTITLE0=Anne Murray - Snowbird
TTITLE1=Asleep At The Wheel - Miles And Miles Of Texas
TTITLE2=Mel McDaniel - Baby's Got Her Blue Jeans On
TTITLE3=Kenny Rogers - The Gamber
TTITLE4=Jessie Colter - I'm Not Lisa
TTITLE5=Eddie Rabbitt - I Love A Rainy Night
TTITLE6=Don Williams - Heartbeat In The Darkness
TTITLE7=Glen Campbell - Gentle Of My Mind
TTITLE8=Willie Nelson - Right Or Wrong
TTITLE9=Crystal Gayle - Never Ending Song Of Love
TTITLE10=Merle Travis - Divorme Me C.O.D.
TTITLE11=Hank Thompson - A Six Pack To Go
EXTD=
EXTT0=
EXTT1=
EXTT2=
EXTT3=
EXTT4=
EXTT5=
EXTT6=
EXTT7=
EXTT8=
EXTT9=
EXTT10=
EXTT11=
PLAYORDER=
